<?xml version="1.0" encoding="UTF-8"?>
<svg id="Ebene_1" xmlns="http://www.w3.org/2000/svg" viewBox="0 0 809.64 735.49">
  <defs>
    <style>
      .cls-1 {
        fill: #2e8879;
      }

      .cls-2 {
        fill: #1ab88b;
      }

      .cls-3 {
        fill: #17534a;
      }
    </style>
  </defs>
  <path class="cls-3" d="M703.76.25l105.63,352.03-89.69,26.79c-17.63,6.3-96.51,21.3-138.77,56.69-22.72,17.83-42.65,41.98-55.58,65.81l-17.24,31.8-14.28-31.06c-15.52-33.78-44.97-70.74-76.94-89.68l-31.62-18.74,32.73-16.58c33.15-16.8,60.4-43.31,78.11-75.97l20.9-38.54,18.28,39.77c15.52,33.77,40.96,62.01,72.94,80.96-49.26-7.83-74.48-35.09-91.74-72.07l-1.65-3.54-2.1,3.8c-10.43,18.87-23.56,35.17-38.92,49.18-15.36,13.99-32.93,25.68-52.22,35.29l1.63.96c36.4,21.68,65.45,54.72,83.49,93.05l1.97,4.19,2.48-4.44c11.3-20.3,26.42-39.07,43.44-55.06,17.41-17.71,51.37-43.66,104.78-60.75l125.68-38.14L691.53,24.37,190.76,173.99l35.08,122.21c-4.88,6.6-9.53,7.63-15.69,9.38l-43.7-144.79L703.76.25Z"/>
  <path class="cls-1" d="M601.41,439.26l40.94,135.44L105.04,735.25.25,386.1l73.14-21.83s120.77-34.62,146.55-48.05c22.26-11.28,40.57-29.08,52.47-51.03l14.04-25.88,12.28,26.72c10.43,22.68,27.51,41.65,48.99,54.38l21.24,12.59-21.98,11.13c-22.27,11.28-43.03,33.62-54.93,55.56l-11.58,21.36-9.59-20.87c-10.43-22.69-27.12-45.58-48.59-58.31,23.65.75,48.17,14.6,57.81,35.07l1.7,3.61,2.17-3.9c5.47-9.82,12.34-18.7,20.35-26.4,8.01-7.71,17.15-14.23,27.17-19.32l-.57-.33c-10-5.86-19.01-13.19-26.73-21.67-7.72-8.49-14.18-18.13-19.09-28.64-11.76,19.81-31.74,35.3-37.42,40.12-25.39,21.47-139.14,53.85-139.14,53.85l-84.82,25.28,93.56,311.58,501.61-149.88-32.71-107.89c6.98-8,8.62-9.88,15.23-14.09Z"/>
  <path class="cls-2" d="M386.24,494.66l-13.56,6.87c-13.74,6.96-26.55,20.74-33.89,34.27l-7.15,13.18-5.91-12.87c-6.43-14-18.64-29.31-31.88-37.16l-13.1-7.77,13.56-6.87c13.74-6.96,25.02-17.95,32.37-31.48l8.65-15.97,7.58,16.48c6.43,14,16.97,25.7,30.22,33.55l13.1,7.77ZM353.26,494l-.23-.14c-4.13-2.42-7.84-5.43-11.02-8.93s-5.84-7.47-7.87-11.81c-4.65,8.43-11.76,15.24-20.37,19.53l-.07.04c8.02,4.78,14.42,11.83,18.39,20.27l.69,1.48.9-1.61c2.25-4.04,5.08-7.71,8.38-10.88,3.3-3.17,7.06-5.86,11.19-7.96Z"/>
</svg>